<svg xmlns="http://www.w3.org/2000/svg" viewBox="0 0 299.45 299.45"><defs><style>.cls-1{fill:#231f20;}.cls-2{fill:#fff;}.cls-3{fill:none;stroke:#231f20;stroke-miterlimit:10;stroke-width:6px;}</style></defs><title>Icons</title><g id="Layer_11" data-name="Layer 11"><path class="cls-1" d="M112.69,93.74,203.94,185l-19.59,19.59L93.1,113.33l19.59-19.59m0-8.49L84.62,113.33l99.74,99.74L212.43,185,112.69,85.26Z"/><path class="cls-2" d="M90.71,207.74c5-13.74,22.69-52.5,74.3-96.23l21.91,21.91c-28.13,33.21-54,52-70.81,62A151.26,151.26,0,0,1,90.71,207.74Z"/><path class="cls-1" d="M164.85,115.59l18,18c-27,31.44-51.73,49.44-68,59.1A164.06,164.06,0,0,1,96,202.4a164.18,164.18,0,0,1,9.72-18.85c16.94-28.46,40.74-52.16,59.09-68m.34-8.15C97.45,164,86.08,212.35,86.08,212.35S134.45,201,191,133.25l-25.8-25.8Z"/><path class="cls-2" d="M184.72,132.79c-3.92,0-8.79-2.43-12.71-6.35-5.16-5.16-6.85-10.82-6.23-14.14l.07-.37c.25-1.12,1.59-6,7.08-11.74l.51-.51c5.64-5.46,14.49-7,25.69-9,3.29-.59,6.9-1.23,10.71-2-.8,3.81-1.44,7.42-2,10.71-2,11.2-3.58,20-9.07,25.72l-.48.48c-6.51,6.25-11.9,7.11-12,7.12l-.16,0a7.79,7.79,0,0,1-1.43.13Z"/><path class="cls-1" d="M206,92.43c-.42,2.22-.8,4.35-1.16,6.36-2,11.1-3.41,19.12-8.25,24.13l-.42.43c-5.12,4.91-9.29,6.09-10.21,6.29l-.37.07a4.84,4.84,0,0,1-.88.07c-2.36,0-6.55-1.43-10.59-5.48s-5.87-8.93-5.4-11.47l0-.15,0-.16s.91-4.64,6.29-10.25l.45-.45c5-4.83,13-6.26,24.13-8.24,2-.36,4.14-.74,6.36-1.16m7.77-7.77C194.6,89.19,180.16,89,171.32,97.56l-.55.55c-7.11,7.4-7.93,13.64-7.93,13.64h0c-.9,4.83,1.69,11.44,7.06,16.81,4.66,4.66,10.27,7.23,14.83,7.23a10.79,10.79,0,0,0,2-.18h0s6.24-.83,13.64-7.93l.55-.55c8.56-8.84,8.37-23.28,12.89-42.46Z"/><line class="cls-3" x1="169.52" y1="198.24" x2="181.76" y2="186"/><line class="cls-3" x1="156.66" y1="185.38" x2="168.9" y2="173.14"/><line class="cls-3" x1="99.45" y1="128.17" x2="111.69" y2="115.93"/><line class="cls-3" x1="112.31" y1="141.03" x2="124.55" y2="128.79"/></g></svg>