<svg id="Grid_64px_X4" data-name="Grid 64px X4" xmlns="http://www.w3.org/2000/svg" viewBox="0 0 299.45 299.45"><defs><style>.cls-1{fill:none;stroke:#000;stroke-miterlimit:10;stroke-width:6px;}.cls-2{fill:#fff;}</style></defs><title>Icons</title><path d="M207.47,90.94V159.3a3.09,3.09,0,0,1-3.08,3.08H95.06A3.09,3.09,0,0,1,92,159.3V90.94H207.47m6-6H86V159.3a9.08,9.08,0,0,0,9.08,9.08H204.38a9.08,9.08,0,0,0,9.08-9.08V84.94Z"/><rect class="cls-1" x="108.72" y="118.95" width="24" height="28.99"/><line class="cls-1" x1="151.1" y1="118.95" x2="192.97" y2="118.95"/><line class="cls-1" x1="151.1" y1="132.95" x2="192.97" y2="132.95"/><line class="cls-1" x1="151.1" y1="146.94" x2="192.97" y2="146.94"/><rect x="88.86" y="88.28" width="121.73" height="14.34"/><circle class="cls-2" cx="100.69" cy="94.27" r="4.5"/></svg>